{
  "accessors": [
    {
      "name": "Node-Mesh_0_positions",
      "componentType": 5126,
      "count": 30,
      "min": [
        -0.18717099726200104,
        -0.10180369764566422,
        -0.22661440074443817
      ],
      "max": [
        0.1828290969133377,
        -0.009303689002990723,
        0.1433856040239334
      ],
      "type": "VEC3",
      "bufferView": 0,
      "byteOffset": 0
    },
    {
      "name": "Node-Mesh_0_normals",
      "componentType": 5126,
      "count": 30,
      "min": [
        -0.994206964969635,
        -1,
        -1
      ],
      "max": [
        0.9942070245742798,
        1.7484559577951586e-7,
        1
      ],
      "type": "VEC3",
      "bufferView": 1,
      "byteOffset": 0
    },
    {
      "name": "Node-Mesh_0_indices",
      "componentType": 5123,
      "count": 36,
      "min": [
        0
      ],
      "max": [
        29
      ],
      "type": "SCALAR",
      "bufferView": 2,
      "byteOffset": 0
    },
    {
      "name": "Node-Mesh_1_positions",
      "componentType": 5126,
      "count": 144,
      "min": [
        -0.15717090666294098,
        -0.042897578328847885,
        -0.19661439955234528
      ],
      "max": [
        0.16282910108566284,
        0.03214884176850319,
        0.13338559865951538
      ],
      "type": "VEC3",
      "bufferView": 0,
      "byteOffset": 360
    },
    {
      "name": "Node-Mesh_1_normals",
      "componentType": 5126,
      "count": 144,
      "min": [
        -0.9659261107444763,
        -1,
        -0.965925931930542
      ],
      "max": [
        0.9659261107444763,
        1,
        0.9659258723258972
      ],
      "type": "VEC3",
      "bufferView": 1,
      "byteOffset": 360
    },
    {
      "name": "Node-Mesh_1_indices",
      "componentType": 5123,
      "count": 264,
      "min": [
        0
      ],
      "max": [
        143
      ],
      "type": "SCALAR",
      "bufferView": 2,
      "byteOffset": 72
    },
    {
      "name": "Node-Mesh_2_positions",
      "componentType": 5126,
      "count": 24,
      "min": [
        -0.18717089295387268,
        -0.01055383961647749,
        -0.22661450505256653
      ],
      "max": [
        0.1828290969133377,
        0.07944619655609131,
        0.1433856040239334
      ],
      "type": "VEC3",
      "bufferView": 0,
      "byteOffset": 2088
    },
    {
      "name": "Node-Mesh_2_normals",
      "componentType": 5126,
      "count": 24,
      "min": [
        -1,
        -1,
        -1
      ],
      "max": [
        1,
        1,
        1
      ],
      "type": "VEC3",
      "bufferView": 1,
      "byteOffset": 2088
    },
    {
      "name": "Node-Mesh_2_indices",
      "componentType": 5123,
      "count": 36,
      "min": [
        0
      ],
      "max": [
        23
      ],
      "type": "SCALAR",
      "bufferView": 2,
      "byteOffset": 600
    },
    {
      "name": "Node-Mesh_3_positions",
      "componentType": 5126,
      "count": 276,
      "min": [
        -0.13717080652713776,
        -0.008953571319580078,
        -0.1766144037246704
      ],
      "max": [
        0.14282900094985962,
        0.019297899678349495,
        0.12338569760322571
      ],
      "type": "VEC3",
      "bufferView": 0,
      "byteOffset": 2376
    },
    {
      "name": "Node-Mesh_3_normals",
      "componentType": 5126,
      "count": 276,
      "min": [
        -1,
        -1,
        -0.965925931930542
      ],
      "max": [
        1,
        1,
        0.9659258723258972
      ],
      "type": "VEC3",
      "bufferView": 1,
      "byteOffset": 2376
    },
    {
      "name": "Node-Mesh_3_indices",
      "componentType": 5123,
      "count": 498,
      "min": [
        0
      ],
      "max": [
        275
      ],
      "type": "SCALAR",
      "bufferView": 2,
      "byteOffset": 672
    },
    {
      "name": "Node-Mesh_4_positions",
      "componentType": 5126,
      "count": 24,
      "min": [
        -0.04717088118195534,
        0.004446148872375488,
        -0.08661442995071411
      ],
      "max": [
        0.022829119116067886,
        0.004446148872375488,
        -0.016614379361271858
      ],
      "type": "VEC3",
      "bufferView": 0,
      "byteOffset": 5688
    },
    {
      "name": "Node-Mesh_4_normals",
      "componentType": 5126,
      "count": 24,
      "min": [
        0,
        -1,
        0
      ],
      "max": [
        0,
        1,
        0
      ],
      "type": "VEC3",
      "bufferView": 1,
      "byteOffset": 5688
    },
    {
      "name": "Node-Mesh_4_indices",
      "componentType": 5123,
      "count": 60,
      "min": [
        0
      ],
      "max": [
        23
      ],
      "type": "SCALAR",
      "bufferView": 2,
      "byteOffset": 1668
    },
    {
      "name": "Node-Mesh_5_positions",
      "componentType": 5126,
      "count": 24,
      "min": [
        -0.11717099696397781,
        0.004446208011358976,
        0.10338559746742249
      ],
      "max": [
        -0.08717087656259537,
        0.014446260407567024,
        0.12338549643754959
      ],
      "type": "VEC3",
      "bufferView": 0,
      "byteOffset": 5976
    },
    {
      "name": "Node-Mesh_5_normals",
      "componentType": 5126,
      "count": 24,
      "min": [
        -1,
        -1,
        -1
      ],
      "max": [
        1,
        1,
        1
      ],
      "type": "VEC3",
      "bufferView": 1,
      "byteOffset": 5976
    },
    {
      "name": "Node-Mesh_5_indices",
      "componentType": 5123,
      "count": 36,
      "min": [
        0
      ],
      "max": [
        23
      ],
      "type": "SCALAR",
      "bufferView": 2,
      "byteOffset": 1788
    }
  ],
  "asset": {
    "generator": "obj2gltf",
    "version": "2.0"
  },
  "buffers": [
    {
      "name": "model",
      "byteLength": 14388,
      "uri": "data:application/octet-stream;base64,"
    }
  ],
  "bufferViews": [
    {
      "name": "bufferView_0",
      "buffer": 0,
      "byteLength": 6264,
      "byteOffset": 0,
      "byteStride": 12,
      "target": 34962
    },
    {
      "name": "bufferView_1",
      "buffer": 0,
      "byteLength": 6264,
      "byteOffset": 6264,
      "byteStride": 12,
      "target": 34962
    },
    {
      "name": "bufferView_2",
      "buffer": 0,
      "byteLength": 1860,
      "byteOffset": 12528,
      "target": 34963
    }
  ],
  "materials": [
    {
      "name": "mat2",
      "pbrMetallicRoughness": {
        "baseColorFactor": [
          0.4,
          0.23,
          0.72,
          1
        ],
        "metallicFactor": 0,
        "roughnessFactor": 1
      },
      "emissiveFactor": [
        0,
        0,
        0
      ],
      "alphaMode": "OPAQUE",
      "doubleSided": false
    },
    {
      "name": "mat1",
      "pbrMetallicRoughness": {
        "baseColorFactor": [
          0.61,
          0.15,
          0.69,
          1
        ],
        "metallicFactor": 0,
        "roughnessFactor": 1
      },
      "emissiveFactor": [
        0,
        0,
        0
      ],
      "alphaMode": "OPAQUE",
      "doubleSided": false
    },
    {
      "name": "mat24",
      "pbrMetallicRoughness": {
        "baseColorFactor": [
          0.92,
          0.95,
          0.94,
          0.4
        ],
        "metallicFactor": 0,
        "roughnessFactor": 0.7
      },
      "emissiveFactor": [
        0,
        0,
        0
      ],
      "alphaMode": "BLEND",
      "doubleSided": true
    },
    {
      "name": "mat23",
      "pbrMetallicRoughness": {
        "baseColorFactor": [
          0.1,
          0.1,
          0.1,
          1
        ],
        "metallicFactor": 0,
        "roughnessFactor": 1
      },
      "emissiveFactor": [
        0,
        0,
        0
      ],
      "alphaMode": "OPAQUE",
      "doubleSided": false
    },
    {
      "name": "mat21",
      "pbrMetallicRoughness": {
        "baseColorFactor": [
          1,
          1,
          1,
          1
        ],
        "metallicFactor": 0,
        "roughnessFactor": 1
      },
      "emissiveFactor": [
        0,
        0,
        0
      ],
      "alphaMode": "OPAQUE",
      "doubleSided": false
    },
    {
      "name": "mat22",
      "pbrMetallicRoughness": {
        "baseColorFactor": [
          0.62,
          0.62,
          0.62,
          1
        ],
        "metallicFactor": 0,
        "roughnessFactor": 1
      },
      "emissiveFactor": [
        0,
        0,
        0
      ],
      "alphaMode": "OPAQUE",
      "doubleSided": false
    }
  ],
  "meshes": [
    {
      "name": "Node-Mesh",
      "primitives": [
        {
          "attributes": {
            "POSITION": 0,
            "NORMAL": 1
          },
          "indices": 2,
          "material": 0,
          "mode": 4
        },
        {
          "attributes": {
            "POSITION": 3,
            "NORMAL": 4
          },
          "indices": 5,
          "material": 1,
          "mode": 4
        },
        {
          "attributes": {
            "POSITION": 6,
            "NORMAL": 7
          },
          "indices": 8,
          "material": 2,
          "mode": 4
        },
        {
          "attributes": {
            "POSITION": 9,
            "NORMAL": 10
          },
          "indices": 11,
          "material": 3,
          "mode": 4
        },
        {
          "attributes": {
            "POSITION": 12,
            "NORMAL": 13
          },
          "indices": 14,
          "material": 4,
          "mode": 4
        },
        {
          "attributes": {
            "POSITION": 15,
            "NORMAL": 16
          },
          "indices": 17,
          "material": 5,
          "mode": 4
        }
      ]
    }
  ],
  "nodes": [
    {
      "name": "Node",
      "mesh": 0
    }
  ],
  "scene": 0,
  "scenes": [
    {
      "nodes": [
        0
      ]
    }
  ]
}
