mtllib materials.mtl
v 0.172829 -0.1018037 -0.2266144
v 0.182829 -0.009303689 0.1433855
v 0.1828291 -0.009303808 -0.2266144
v -0.187171 -0.009303689 0.1433854
v -0.1771708 -0.1018037 -0.2266143
v -0.1871709 -0.009303808 -0.2266144
v -0.1771709 -0.1018037 0.1433855
v 0.1712665 -0.1018037 0.1433856
v -0.01217096 0.002414882 -0.1966144
v -0.084671 0.002414942 -0.1771881
v -0.08467095 -0.04289758 -0.177188
v -0.01217099 -0.04289758 -0.1966143
v -0.1377447 0.002414942 -0.1241144
v -0.1377446 -0.04289752 -0.1241143
v -0.1571709 0.002414942 -0.05161434
v -0.1571709 -0.04289752 -0.05161434
v -0.1377447 0.002414942 0.02088565
v -0.1377446 -0.04289752 0.02088559
v -0.08467103 0.002414942 0.07395929
v -0.08467098 -0.04289752 0.07395929
v -0.01217099 0.002414882 0.09338564
v -0.01217098 -0.04289752 0.09338558
v 0.06032905 0.002414882 0.07395929
v 0.06032903 -0.04289752 0.07395929
v 0.1134027 0.002414882 0.02088565
v 0.1134027 -0.04289758 0.02088559
v 0.132829 0.002414882 -0.0516144
v 0.132829 -0.04289758 -0.0516144
v 0.1134027 0.002414882 -0.1241144
v 0.1134027 -0.04289758 -0.1241143
v 0.06032895 0.002414882 -0.1771881
v 0.06032896 -0.04289758 -0.177188
v -0.1871709 -0.01055378 0.1433855
v -0.1871709 -0.01055384 -0.2266145
v -0.1871709 0.0794462 -0.2266145
v -0.1871709 0.0794462 0.1433855
v 0.1828291 -0.01055378 0.1433856
v 0.1828291 0.0794462 0.1433855
v 0.1828291 0.0794462 -0.2266144
v 0.1828291 -0.01055384 -0.2266144
v 0.1455318 0.03214884 0.09879094
v 0.1368831 0.03214884 0.1011084
v 0.1368831 -0.007851183 0.1011084
v 0.1455318 -0.007851183 0.09879094
v 0.1305519 0.03214884 0.1074396
v 0.1305519 -0.007851183 0.1074396
v 0.1282345 0.03214884 0.1160883
v 0.1282345 -0.007851183 0.1160883
v 0.1305519 0.03214884 0.1247369
v 0.1305519 -0.007851183 0.124737
v 0.1368831 0.03214884 0.1310682
v 0.1368831 -0.007851183 0.1310682
v 0.1455318 0.03214884 0.1333856
v 0.1455318 -0.007851183 0.1333856
v 0.1541805 0.03214884 0.1310682
v 0.1541804 -0.007851183 0.1310682
v 0.1605117 0.03214884 0.1247369
v 0.1605117 -0.007851183 0.1247369
v 0.1628291 0.03214884 0.1160883
v 0.1628291 -0.007851183 0.1160883
v 0.1605117 0.03214884 0.1074396
v 0.1605117 -0.007851183 0.1074396
v 0.1541804 0.03214884 0.1011084
v 0.1541804 -0.007851183 0.1011084
v -0.01217086 0.004246891 -0.1766144
v -0.0746709 0.004246891 -0.1598675
v -0.07467086 -0.008953512 -0.1598675
v -0.01217087 -0.008953571 -0.1766143
v -0.1204241 0.004246891 -0.1141144
v -0.1204241 -0.008953512 -0.1141143
v -0.1287974 0.004246891 -0.0828644
v -0.1371708 0.004246891 -0.0516144
v -0.1371708 -0.008953512 -0.0516144
v -0.1204241 0.004246891 0.0108856
v -0.1204241 -0.008953512 0.0108856
v -0.07467093 0.004246891 0.05663872
v -0.07467089 -0.008953512 0.05663878
v -0.01217089 0.004246891 0.0733856
v -0.01217087 -0.008953512 0.0733856
v 0.05032916 0.004246891 0.05663872
v 0.05032915 -0.008953512 0.05663878
v 0.09608233 0.004246891 0.0108856
v 0.09608229 -0.008953512 0.0108856
v 0.1044557 0.004246891 -0.0203644
v 0.1128291 0.004246891 -0.0516144
v 0.1128291 -0.008953571 -0.0516144
v 0.09608233 0.004246771 -0.1141144
v 0.09608229 -0.008953571 -0.1141143
v 0.05032908 0.004246891 -0.1598676
v 0.05032907 -0.008953571 -0.1598676
v -0.01217089 0.004246891 -0.0516144
v 0.142829 0.009446204 0.1233853
v 0.142829 0.004520357 0.1220654
v -0.09717099 0.004520237 0.1220659
v -0.09717099 0.009446084 0.1233857
v 0.142829 0.0009144545 0.1184595
v -0.09717099 0.000914216 0.1184599
v 0.142829 -0.0004054904 0.1135336
v -0.09717099 -0.0004056096 0.113534
v 0.142829 0.0009144545 0.1086078
v -0.09717099 0.000914216 0.1086082
v 0.142829 0.004520357 0.1050019
v -0.09717099 0.004520237 0.1050022
v 0.142829 0.009446204 0.1036819
v -0.09717099 0.009446084 0.1036824
v 0.142829 0.01437205 0.1050019
v -0.09717099 0.01437193 0.1050022
v 0.142829 0.01797795 0.1086078
v -0.09717099 0.01797783 0.1086082
v 0.142829 0.0192979 0.1135336
v -0.09717099 0.01929772 0.113534
v 0.142829 0.01797795 0.1184595
v -0.09717099 0.01797783 0.1184599
v 0.142829 0.01437205 0.1220654
v -0.09717099 0.01437193 0.1220659
v -0.02967089 0.004446149 -0.02130353
v -0.04248177 0.004446149 -0.03411442
v -0.04717088 0.004446149 -0.0516144
v -0.04248177 0.004446149 -0.06911439
v -0.0296709 0.004446149 -0.08192527
v -0.01217089 0.004446149 -0.08661443
v 0.005329117 0.004446149 -0.08192527
v 0.01814 0.004446149 -0.06911439
v 0.02282912 0.004446149 -0.0516144
v 0.01814 0.004446149 -0.03411442
v 0.00532911 0.004446149 -0.02130353
v -0.01217089 0.004446149 -0.01661438
v -0.117171 0.004446208 0.1033856
v -0.117171 0.01444626 0.1033856
v -0.117171 0.01444626 0.1233855
v -0.117171 0.004446208 0.1233855
v -0.08717097 0.004446208 0.1033856
v -0.08717094 0.004446208 0.1233855
v -0.08717088 0.01444626 0.1233855
v -0.08717091 0.01444626 0.1033856
v -0.009624116 0.006694674 -0.04844713
v -0.007904701 0.006682754 -0.05101472
v -0.007819332 0.001684129 -0.05093443
v -0.009538747 0.00169605 -0.04836684
v -0.008022554 0.006631136 -0.05410224
v -0.007937185 0.001632512 -0.05402189
v -0.00993266 0.006559491 -0.0565303
v -0.009847291 0.001560867 -0.05644995
v -0.01290544 0.006495237 -0.0573715
v -0.01282007 0.001496613 -0.05729115
v -0.01580539 0.006462812 -0.05630451
v -0.01572002 0.001464188 -0.05622417
v -0.01752482 0.006474733 -0.05373687
v -0.01743943 0.001476109 -0.05365658
v -0.01740695 0.006526351 -0.0506494
v -0.01732158 0.001527727 -0.05056912
v -0.01549683 0.006597996 -0.04822135
v -0.01541146 0.001599371 -0.04814106
v -0.01252406 0.00666225 -0.04738015
v -0.01243869 0.001663625 -0.04729986
v -0.009631552 0.006774485 -0.04871446
v -0.007905789 0.006756246 -0.05127776
v -0.007807903 0.001758218 -0.05117631
v -0.009533666 0.001776457 -0.04861295
v -0.008015923 0.006691396 -0.05436534
v -0.007918023 0.001693368 -0.05426383
v -0.009919859 0.006604671 -0.05679774
v -0.009821974 0.001606703 -0.05669624
v -0.01289039 0.006529272 -0.05764592
v -0.01279251 0.001531303 -0.05754441
v -0.01579285 0.006493986 -0.05658591
v -0.01569497 0.001495957 -0.05648446
v -0.01751862 0.006512225 -0.05402261
v -0.01742073 0.001514196 -0.0539211
v -0.0174085 0.006577075 -0.05093509
v -0.01731061 0.001579046 -0.05083358
v -0.01550455 0.00666374 -0.04850268
v -0.01540666 0.001665711 -0.04840118
v -0.01253401 0.00673914 -0.04765445
v -0.01243613 0.001741111 -0.047553
vn 0.994207 -0.1074822 2.113559E-07
vn -0.994207 -0.1074829 -1.365799E-07
vn 3.057097E-14 -1 -1.748456E-07
vn -2.324469E-14 -1 -3.788614E-11
vn 1.748456E-07 1.748456E-07 -1
vn -1.748456E-07 -1.748456E-07 1
vn 2.923794E-14 -1 4.149896E-08
vn 0.9922692 -0.1240337 0.004190511
vn -0.994207 -0.1074826 -1.725623E-07
vn -0.2588189 -8.905704E-07 -0.9659259
vn -0.7071068 -9.251589E-07 -0.7071066
vn -0.9659261 9.796658E-08 -0.2588182
vn -0.9659262 -1.290986E-06 0.258818
vn -0.7071066 -9.978223E-07 0.7071069
vn -0.2588188 -5.223345E-07 0.9659259
vn 0.258819 -7.634082E-07 0.9659258
vn 0.7071067 -1.093498E-06 0.7071069
vn 0.9659261 4.709839E-07 0.2588183
vn 0.9659262 -1.80673E-06 -0.258818
vn 0.7071064 -5.529571E-07 -0.7071071
vn 0.2588187 -1.178178E-06 -0.9659259
vn 1.748456E-07 1 -1.748456E-07
vn -1.748456E-07 -1 1.748456E-07
vn -1 0 -8.742278E-08
vn 1 0 8.742278E-08
vn -1.528548E-14 -1 1.748456E-07
vn 1.528548E-14 1 -1.748456E-07
vn -8.742278E-08 1.748456E-07 1
vn 8.742278E-08 -1.748456E-07 -1
vn -0.2588189 -1.059458E-06 -0.9659259
vn -0.7071068 -1.048793E-06 -0.7071066
vn -0.9659261 5.271336E-08 -0.2588182
vn -0.9659262 -1.245732E-06 0.258818
vn -0.7071066 -8.741878E-07 0.7071069
vn -0.2588188 -3.534467E-07 0.9659259
vn 0.258819 -5.945204E-07 0.9659258
vn 0.7071067 -9.698635E-07 0.7071069
vn 0.9659261 5.162372E-07 0.2588183
vn 0.9659262 -1.851984E-06 -0.258818
vn 0.7071064 -6.765916E-07 -0.7071071
vn 0.2588187 -1.347066E-06 -0.9659259
vn 1.748456E-07 1 -3.496911E-07
vn -1.748456E-07 -1 3.496911E-07
vn -0.2588189 -8.905704E-07 -0.9659259
vn -0.7071068 -9.251589E-07 -0.7071066
vn -0.9659261 9.796658E-08 -0.2588182
vn -0.9659262 -1.290986E-06 0.258818
vn -0.7071066 -9.978223E-07 0.7071069
vn -0.2588188 -5.223345E-07 0.9659259
vn 0.258819 -7.634082E-07 0.9659258
vn 0.7071067 -1.093498E-06 0.7071069
vn 0.9659261 4.709839E-07 0.2588183
vn 0.9659262 -1.80673E-06 -0.258818
vn 0.7071064 -5.529571E-07 -0.7071071
vn 0.2588187 -1.178178E-06 -0.9659259
vn 1.748456E-07 1 -1.748456E-07
vn -1.748456E-07 -1 1.748456E-07
vn 1.748456E-07 1 -1.748456E-07
vn 1.748456E-07 1 -1.748456E-07
vn 1.748456E-07 1 -1.748456E-07
vn 7.908403E-07 -0.2588314 0.9659227
vn 6.840938E-07 -0.7071068 0.7071069
vn 2.298524E-07 -0.9659228 0.2588307
vn 9.215543E-07 -0.9659228 -0.2588307
vn 2.003692E-07 -0.707107 -0.7071068
vn -6.632982E-07 -0.2588309 -0.9659229
vn 2.488258E-08 0.2588309 -0.9659229
vn -1.190554E-07 0.7071073 -0.7071066
vn -9.017901E-07 0.9659227 -0.2588314
vn -1.929365E-07 0.9659227 0.2588314
vn 4.174722E-07 0.707107 0.7071069
vn -2.7121E-08 0.2588313 0.9659228
vn -1 -1.192093E-07 -1.141785E-05
vn 1 1.192093E-07 1.748456E-07
vn 0 1 0
vn 0 -1 0
vn -1 1.748456E-07 -2.622684E-07
vn 1 -1.748456E-07 2.622684E-07
vn 2.622684E-07 3.576279E-07 -1
vn -2.622684E-07 -3.576279E-07 1
vn -1.748456E-07 -1 -5.960464E-08
vn 1.748456E-07 1 5.960464E-08
vn -0.8307279 -0.02312377 -0.5561983
vn 0.7866337 -0.3196121 0.528257
vn -0.9991266 -0.0164464 0.0384136
vn 0.9449124 -0.325888 -0.03062082
vn -0.7858929 -0.003487066 0.6183528
vn 0.7444932 -0.3380688 -0.5757077
vn -0.2724747 0.01080421 0.9621022
vn 0.2619297 -0.3515009 -0.8987991
vn 0.3450194 0.02096865 0.9383613
vn -0.3184553 -0.3610548 -0.8764848
vn 0.0170738 -0.9997252 0.01606214
vn -0.0170738 0.9997252 -0.01606214
vn -0.8292947 -0.0275754 -0.5581308
vn 0.7861416 -0.3153861 0.5315196
vn -0.999173 -0.01883755 0.03603331
vn 0.945811 -0.3235986 -0.02693738
vn -0.7874013 -0.002904399 0.6164339
vn 0.7467659 -0.3385745 -0.572458
vn -0.2748689 0.01413814 0.9613777
vn 0.2650349 -0.3545925 -0.896672
vn 0.342654 0.02578038 0.9391079
vn -0.3153771 -0.3655354 -0.8757403
vn 0.01957764 -0.9996023 0.02029774
vn -0.01957764 0.9996023 -0.02029774
usemtl mat2
f 3//1 2//1 1//1
f 6//2 5//2 4//2
f 3//3 6//3 4//3 2//3
f 1//4 8//4 7//4
f 3//5 1//5 5//5 6//5
f 2//6 4//6 7//6 8//6
f 7//7 5//7 1//7
f 2//8 8//8 1//8
f 5//9 7//9 4//9
usemtl mat1
f 12//10 11//10 10//10 9//10
f 11//11 14//11 13//11 10//11
f 14//12 16//12 15//12 13//12
f 16//13 18//13 17//13 15//13
f 18//14 20//14 19//14 17//14
f 20//15 22//15 21//15 19//15
f 22//16 24//16 23//16 21//16
f 24//17 26//17 25//17 23//17
f 26//18 28//18 27//18 25//18
f 28//19 30//19 29//19 27//19
f 30//20 32//20 31//20 29//20
f 32//21 12//21 9//21 31//21
f 9//22 10//22 13//22 15//22 17//22 19//22 21//22 23//22 25//22 27//22 29//22 31//22
f 32//23 30//23 28//23 26//23 24//23 22//23 20//23 18//23 16//23 14//23 11//23 12//23
f 44//30 43//30 42//30 41//30
f 43//31 46//31 45//31 42//31
f 46//32 48//32 47//32 45//32
f 48//33 50//33 49//33 47//33
f 50//34 52//34 51//34 49//34
f 52//35 54//35 53//35 51//35
f 54//36 56//36 55//36 53//36
f 56//37 58//37 57//37 55//37
f 58//38 60//38 59//38 57//38
f 60//39 62//39 61//39 59//39
f 62//40 64//40 63//40 61//40
f 64//41 44//41 41//41 63//41
f 41//42 42//42 45//42 47//42 49//42 51//42 53//42 55//42 57//42 59//42 61//42 63//42
f 64//43 62//43 60//43 58//43 56//43 54//43 52//43 50//43 48//43 46//43 43//43 44//43
usemtl mat24
f 36//24 35//24 34//24 33//24
f 40//25 39//25 38//25 37//25
f 34//26 40//26 37//26 33//26
f 38//27 39//27 35//27 36//27
f 37//28 38//28 36//28 33//28
f 35//29 39//29 40//29 34//29
usemtl mat23
f 68//44 67//44 66//44 65//44
f 67//45 70//45 69//45 66//45
f 70//46 73//46 72//46 71//46 69//46
f 73//47 75//47 74//47 72//47
f 75//48 77//48 76//48 74//48
f 77//49 79//49 78//49 76//49
f 79//50 81//50 80//50 78//50
f 81//51 83//51 82//51 80//51
f 83//52 86//52 85//52 84//52 82//52
f 86//53 88//53 87//53 85//53
f 88//54 90//54 89//54 87//54
f 90//55 68//55 65//55 89//55
f 65//56 66//56 69//56 71//56 91//56 89//56
f 90//57 88//57 86//57 83//57 81//57 79//57 77//57 75//57 73//57 70//57 67//57 68//57
f 91//58 76//58 78//58 80//58 82//58 84//58
f 91//59 71//59 72//59 74//59 76//59
f 91//60 84//60 85//60 87//60 89//60
f 95//61 94//61 93//61 92//61
f 94//62 97//62 96//62 93//62
f 97//63 99//63 98//63 96//63
f 99//64 101//64 100//64 98//64
f 101//65 103//65 102//65 100//65
f 103//66 105//66 104//66 102//66
f 105//67 107//67 106//67 104//67
f 107//68 109//68 108//68 106//68
f 109//69 111//69 110//69 108//69
f 111//70 113//70 112//70 110//70
f 113//71 115//71 114//71 112//71
f 115//72 95//72 92//72 114//72
f 115//73 113//73 111//73 109//73 107//73 105//73 103//73 101//73 99//73 97//73 94//73 95//73
f 92//74 93//74 96//74 98//74 100//74 102//74 104//74 106//74 108//74 110//74 112//74 114//74
f 139//83 138//83 137//83 136//83
f 138//84 141//84 140//84 137//84
f 141//85 143//85 142//85 140//85
f 143//86 145//86 144//86 142//86
f 145//87 147//87 146//87 144//87
f 147//88 149//88 148//88 146//88
f 149//89 151//89 150//89 148//89
f 151//90 153//90 152//90 150//90
f 153//91 155//91 154//91 152//91
f 155//92 139//92 136//92 154//92
f 155//93 153//93 151//93 149//93 147//93 145//93 143//93 141//93 138//93 139//93
f 136//94 137//94 140//94 142//94 144//94 146//94 148//94 150//94 152//94 154//94
f 159//95 158//95 157//95 156//95
f 158//96 161//96 160//96 157//96
f 161//97 163//97 162//97 160//97
f 163//98 165//98 164//98 162//98
f 165//99 167//99 166//99 164//99
f 167//100 169//100 168//100 166//100
f 169//101 171//101 170//101 168//101
f 171//102 173//102 172//102 170//102
f 173//103 175//103 174//103 172//103
f 175//104 159//104 156//104 174//104
f 175//105 173//105 171//105 169//105 167//105 165//105 163//105 161//105 158//105 159//105
f 156//106 157//106 160//106 162//106 164//106 166//106 168//106 170//106 172//106 174//106
usemtl mat21
f 127//75 126//75 125//75 124//75 123//75 122//75 121//75 120//75 119//75 118//75 117//75 116//75
f 116//76 117//76 118//76 119//76 120//76 121//76 122//76 123//76 124//76 125//76 126//76 127//76
usemtl mat22
f 131//77 130//77 129//77 128//77
f 135//78 134//78 133//78 132//78
f 129//79 135//79 132//79 128//79
f 133//80 134//80 130//80 131//80
f 132//81 133//81 131//81 128//81
f 130//82 134//82 135//82 129//82
