{
  "accessors": [
    {
      "name": "Plane.001-Mesh_0_positions",
      "componentType": 5126,
      "count": 108,
      "min": [
        -4.984591007232666,
        -1.8772660493850708,
        -4.989752769470215
      ],
      "max": [
        10.373886108398438,
        0.9726420044898987,
        4.989756107330322
      ],
      "type": "VEC3",
      "bufferView": 0,
      "byteOffset": 0
    },
    {
      "name": "Plane.001-Mesh_0_normals",
      "componentType": 5126,
      "count": 108,
      "min": [
        -0.07159646600484848,
        -0.4134039580821991,
        -0.9649054408073425
      ],
      "max": [
        0.8059077262878418,
        0.9995140433311462,
        0.9649054408073425
      ],
      "type": "VEC3",
      "bufferView": 1,
      "byteOffset": 0
    },
    {
      "name": "Plane.001-Mesh_0_indices",
      "componentType": 5123,
      "count": 132,
      "min": [
        0
      ],
      "max": [
        107
      ],
      "type": "SCALAR",
      "bufferView": 2,
      "byteOffset": 0
    },
    {
      "name": "Plane.001-Mesh_1_positions",
      "componentType": 5126,
      "count": 150,
      "min": [
        -4.079215049743652,
        -0.06342100352048874,
        -2.846712112426758
      ],
      "max": [
        6.879787921905518,
        1.0600149631500244,
        3.521857976913452
      ],
      "type": "VEC3",
      "bufferView": 0,
      "byteOffset": 1296
    },
    {
      "name": "Plane.001-Mesh_1_normals",
      "componentType": 5126,
      "count": 150,
      "min": [
        -0.9238766431808472,
        -1,
        -0.9468472003936768
      ],
      "max": [
        0.9238766431808472,
        1,
        0.9468472003936768
      ],
      "type": "VEC3",
      "bufferView": 1,
      "byteOffset": 1296
    },
    {
      "name": "Plane.001-Mesh_1_indices",
      "componentType": 5123,
      "count": 288,
      "min": [
        0
      ],
      "max": [
        149
      ],
      "type": "SCALAR",
      "bufferView": 2,
      "byteOffset": 264
    },
    {
      "name": "Plane.001-Mesh_2_positions",
      "componentType": 5126,
      "count": 178,
      "min": [
        -6.9112091064453125,
        -2.0659921169281006,
        -4.999999046325684
      ],
      "max": [
        10.179200172424316,
        1.7139170169830322,
        5.000001907348633
      ],
      "type": "VEC3",
      "bufferView": 0,
      "byteOffset": 3096
    },
    {
      "name": "Plane.001-Mesh_2_normals",
      "componentType": 5126,
      "count": 178,
      "min": [
        -0.9914066195487976,
        -0.9999740719795227,
        -1
      ],
      "max": [
        0.9299272894859314,
        0.9845834970474243,
        1
      ],
      "type": "VEC3",
      "bufferView": 1,
      "byteOffset": 3096
    },
    {
      "name": "Plane.001-Mesh_2_indices",
      "componentType": 5123,
      "count": 300,
      "min": [
        0
      ],
      "max": [
        177
      ],
      "type": "SCALAR",
      "bufferView": 2,
      "byteOffset": 840
    },
    {
      "name": "Plane.001-Mesh_3_positions",
      "componentType": 5126,
      "count": 162,
      "min": [
        -3.618675947189331,
        0.38700398802757263,
        -2.4184019565582275
      ],
      "max": [
        6.395391941070557,
        1.0860459804534912,
        3.1789820194244385
      ],
      "type": "VEC3",
      "bufferView": 0,
      "byteOffset": 5232
    },
    {
      "name": "Plane.001-Mesh_3_normals",
      "componentType": 5126,
      "count": 162,
      "min": [
        -1,
        -1,
        -0.9809483885765076
      ],
      "max": [
        0.9860177040100098,
        1,
        0.9849841594696045
      ],
      "type": "VEC3",
      "bufferView": 1,
      "byteOffset": 5232
    },
    {
      "name": "Plane.001-Mesh_3_indices",
      "componentType": 5123,
      "count": 216,
      "min": [
        0
      ],
      "max": [
        161
      ],
      "type": "SCALAR",
      "bufferView": 2,
      "byteOffset": 1440
    }
  ],
  "asset": {
    "generator": "obj2gltf",
    "version": "2.0"
  },
  "buffers": [
    {
      "name": "Pizza_Slice_01",
      "byteLength": 16224,
      "uri": "data:application/octet-stream;base64,"
    }
  ],
  "bufferViews": [
    {
      "name": "bufferView_0",
      "buffer": 0,
      "byteLength": 7176,
      "byteOffset": 0,
      "byteStride": 12,
      "target": 34962
    },
    {
      "name": "bufferView_1",
      "buffer": 0,
      "byteLength": 7176,
      "byteOffset": 7176,
      "byteStride": 12,
      "target": 34962
    },
    {
      "name": "bufferView_2",
      "buffer": 0,
      "byteLength": 1872,
      "byteOffset": 14352,
      "target": 34963
    }
  ],
  "materials": [
    {
      "name": "FFEB3B",
      "pbrMetallicRoughness": {
        "baseColorFactor": [
          1,
          0.921569,
          0.231373,
          1
        ],
        "metallicFactor": 0,
        "roughnessFactor": 0.903921569
      },
      "emissiveFactor": [
        0,
        0,
        0
      ],
      "alphaMode": "OPAQUE",
      "doubleSided": false
    },
    {
      "name": "F44336",
      "pbrMetallicRoughness": {
        "baseColorFactor": [
          0.956863,
          0.262745,
          0.211765,
          1
        ],
        "metallicFactor": 0,
        "roughnessFactor": 0.903921569
      },
      "emissiveFactor": [
        0,
        0,
        0
      ],
      "alphaMode": "OPAQUE",
      "doubleSided": false
    },
    {
      "name": "FFCC88",
      "pbrMetallicRoughness": {
        "baseColorFactor": [
          1,
          0.8,
          0.533333,
          1
        ],
        "metallicFactor": 0,
        "roughnessFactor": 0.903921569
      },
      "emissiveFactor": [
        0,
        0,
        0
      ],
      "alphaMode": "OPAQUE",
      "doubleSided": false
    },
    {
      "name": "FF5722",
      "pbrMetallicRoughness": {
        "baseColorFactor": [
          1,
          0.341176,
          0.133333,
          1
        ],
        "metallicFactor": 0,
        "roughnessFactor": 0.903921569
      },
      "emissiveFactor": [
        0,
        0,
        0
      ],
      "alphaMode": "OPAQUE",
      "doubleSided": false
    }
  ],
  "meshes": [
    {
      "name": "Plane.001-Mesh",
      "primitives": [
        {
          "attributes": {
            "POSITION": 0,
            "NORMAL": 1
          },
          "indices": 2,
          "material": 0,
          "mode": 4
        },
        {
          "attributes": {
            "POSITION": 3,
            "NORMAL": 4
          },
          "indices": 5,
          "material": 1,
          "mode": 4
        },
        {
          "attributes": {
            "POSITION": 6,
            "NORMAL": 7
          },
          "indices": 8,
          "material": 2,
          "mode": 4
        },
        {
          "attributes": {
            "POSITION": 9,
            "NORMAL": 10
          },
          "indices": 11,
          "material": 3,
          "mode": 4
        }
      ]
    }
  ],
  "nodes": [
    {
      "name": "Plane.001",
      "mesh": 0
    }
  ],
  "scene": 0,
  "scenes": [
    {
      "nodes": [
        0
      ]
    }
  ]
}
