{
  "accessors": [
    {
      "name": "Node-Mesh_0_positions",
      "componentType": 5126,
      "count": 119,
      "min": [
        -0.24035780131816864,
        -0.17746339738368988,
        -0.44061020016670227
      ],
      "max": [
        0.21265360713005066,
        0.22130750119686127,
        0.47938990592956543
      ],
      "type": "VEC3",
      "bufferView": 0,
      "byteOffset": 0
    },
    {
      "name": "Node-Mesh_0_indices",
      "componentType": 5123,
      "count": 159,
      "min": [
        0
      ],
      "max": [
        118
      ],
      "type": "SCALAR",
      "bufferView": 1,
      "byteOffset": 0
    },
    {
      "name": "Node-Mesh_1_positions",
      "componentType": 5126,
      "count": 484,
      "min": [
        -0.25255709886550903,
        -0.2698023021221161,
        -0.44607359170913696
      ],
      "max": [
        0.21265360713005066,
        0.21485629677772522,
        0.4901452958583832
      ],
      "type": "VEC3",
      "bufferView": 0,
      "byteOffset": 1428
    },
    {
      "name": "Node-Mesh_1_indices",
      "componentType": 5123,
      "count": 516,
      "min": [
        0
      ],
      "max": [
        483
      ],
      "type": "SCALAR",
      "bufferView": 1,
      "byteOffset": 320
    },
    {
      "name": "Node-Mesh_2_positions",
      "componentType": 5126,
      "count": 113,
      "min": [
        -0.22598649561405182,
        -0.16442790627479553,
        -0.4222281873226166
      ],
      "max": [
        0.19193020462989807,
        0.23485620319843292,
        0.4669378995895386
      ],
      "type": "VEC3",
      "bufferView": 0,
      "byteOffset": 7236
    },
    {
      "name": "Node-Mesh_2_indices",
      "componentType": 5123,
      "count": 147,
      "min": [
        0
      ],
      "max": [
        112
      ],
      "type": "SCALAR",
      "bufferView": 1,
      "byteOffset": 1352
    },
    {
      "name": "Node-Mesh_3_positions",
      "componentType": 5126,
      "count": 10200,
      "min": [
        -0.13152369856834412,
        -0.09513723850250244,
        -0.30607590079307556
      ],
      "max": [
        0.12946240603923798,
        0.1218705028295517,
        0.24748170375823975
      ],
      "type": "VEC3",
      "bufferView": 0,
      "byteOffset": 8592
    },
    {
      "name": "Node-Mesh_3_indices",
      "componentType": 5123,
      "count": 14400,
      "min": [
        0
      ],
      "max": [
        10199
      ],
      "type": "SCALAR",
      "bufferView": 1,
      "byteOffset": 1648
    }
  ],
  "asset": {
    "generator": "obj2gltf",
    "version": "2.0"
  },
  "buffers": [
    {
      "name": "model",
      "byteLength": 161440,
      "uri": "data:application/octet-stream;base64,"
    }
  ],
  "bufferViews": [
    {
      "name": "bufferView_0",
      "buffer": 0,
      "byteLength": 130992,
      "byteOffset": 0,
      "byteStride": 12,
      "target": 34962
    },
    {
      "name": "bufferView_1",
      "buffer": 0,
      "byteLength": 30448,
      "byteOffset": 130992,
      "target": 34963
    }
  ],
  "materials": [
    {
      "name": "mat15",
      "pbrMetallicRoughness": {
        "baseColorFactor": [
          0.81,
          0.85,
          0.86,
          1
        ],
        "metallicFactor": 0,
        "roughnessFactor": 1
      },
      "emissiveFactor": [
        0,
        0,
        0
      ],
      "alphaMode": "OPAQUE",
      "doubleSided": false
    },
    {
      "name": "mat10",
      "pbrMetallicRoughness": {
        "baseColorFactor": [
          0.3,
          0.69,
          0.31,
          1
        ],
        "metallicFactor": 0,
        "roughnessFactor": 1
      },
      "emissiveFactor": [
        0,
        0,
        0
      ],
      "alphaMode": "OPAQUE",
      "doubleSided": false
    },
    {
      "name": "mat8",
      "pbrMetallicRoughness": {
        "baseColorFactor": [
          0.96,
          0.26,
          0.21,
          1
        ],
        "metallicFactor": 0,
        "roughnessFactor": 1
      },
      "emissiveFactor": [
        0,
        0,
        0
      ],
      "alphaMode": "OPAQUE",
      "doubleSided": false
    },
    {
      "name": "mat23",
      "pbrMetallicRoughness": {
        "baseColorFactor": [
          0.1,
          0.1,
          0.1,
          1
        ],
        "metallicFactor": 0,
        "roughnessFactor": 1
      },
      "emissiveFactor": [
        0,
        0,
        0
      ],
      "alphaMode": "OPAQUE",
      "doubleSided": false
    }
  ],
  "meshes": [
    {
      "name": "Node-Mesh",
      "primitives": [
        {
          "attributes": {
            "POSITION": 0
          },
          "indices": 1,
          "material": 0,
          "mode": 4
        },
        {
          "attributes": {
            "POSITION": 2
          },
          "indices": 3,
          "material": 1,
          "mode": 4
        },
        {
          "attributes": {
            "POSITION": 4
          },
          "indices": 5,
          "material": 2,
          "mode": 4
        },
        {
          "attributes": {
            "POSITION": 6
          },
          "indices": 7,
          "material": 3,
          "mode": 4
        }
      ]
    }
  ],
  "nodes": [
    {
      "name": "Node",
      "mesh": 0
    }
  ],
  "scene": 0,
  "scenes": [
    {
      "nodes": [
        0
      ]
    }
  ]
}
