{
  "accessors": [
    {
      "name": "entity_2-Mesh_0_positions",
      "componentType": 5126,
      "count": 15222,
      "min": [
        -0.2526000142097473,
        -0.26980000734329224,
        -0.44609999656677246
      ],
      "max": [
        0.2126999944448471,
        0.23489999771118164,
        0.4900999963283539
      ],
      "type": "VEC3",
      "bufferView": 0,
      "byteOffset": 0
    },
    {
      "name": "entity_2-Mesh_0_normals",
      "componentType": 5126,
      "count": 15222,
      "min": [
        -0.9997410774230957,
        -0.999695360660553,
        -0.9999982714653015
      ],
      "max": [
        0.9997410774230957,
        0.999695360660553,
        0.9999986290931702
      ],
      "type": "VEC3",
      "bufferView": 1,
      "byteOffset": 0
    },
    {
      "name": "entity_2-Mesh_0_indices",
      "componentType": 5123,
      "count": 15222,
      "min": [
        0
      ],
      "max": [
        15221
      ],
      "type": "SCALAR",
      "bufferView": 2,
      "byteOffset": 0
    }
  ],
  "asset": {
    "generator": "obj2gltf",
    "version": "2.0"
  },
  "buffers": [
    {
      "name": "scene",
      "byteLength": 395772,
      "uri": "data:application/octet-stream;base64,"
    }
  ],
  "bufferViews": [
    {
      "name": "bufferView_0",
      "buffer": 0,
      "byteLength": 182664,
      "byteOffset": 0,
      "byteStride": 12,
      "target": 34962
    },
    {
      "name": "bufferView_1",
      "buffer": 0,
      "byteLength": 182664,
      "byteOffset": 182664,
      "byteStride": 12,
      "target": 34962
    },
    {
      "name": "bufferView_2",
      "buffer": 0,
      "byteLength": 30444,
      "byteOffset": 365328,
      "target": 34963
    }
  ],
  "materials": [
    {
      "name": "default",
      "pbrMetallicRoughness": {
        "baseColorFactor": [
          0.5,
          0.5,
          0.5,
          1
        ],
        "metallicFactor": 0,
        "roughnessFactor": 1
      },
      "emissiveFactor": [
        0,
        0,
        0
      ],
      "alphaMode": "OPAQUE",
      "doubleSided": false
    }
  ],
  "meshes": [
    {
      "name": "entity_2-Mesh",
      "primitives": [
        {
          "attributes": {
            "POSITION": 0,
            "NORMAL": 1
          },
          "indices": 2,
          "material": 0,
          "mode": 4
        }
      ]
    }
  ],
  "nodes": [
    {
      "name": "entity_2",
      "mesh": 0
    }
  ],
  "scene": 0,
  "scenes": [
    {
      "nodes": [
        0
      ]
    }
  ]
}
